<?xml version="1.0" encoding="UTF-8" standalone="no"?>
<svg
   version="1.1"
   width="48"
   height="48"
   viewBox="-0.5 -0.5 48 48"
   id="svg16"
   sodipodi:docname="icon.svg"
   inkscape:version="1.1.2 (0a00cf5339, 2022-02-04)"
   xmlns:inkscape="http://www.inkscape.org/namespaces/inkscape"
   xmlns:sodipodi="http://sodipodi.sourceforge.net/DTD/sodipodi-0.dtd"
   xmlns="http://www.w3.org/2000/svg"
   xmlns:svg="http://www.w3.org/2000/svg">
  <sodipodi:namedview
     id="namedview18"
     pagecolor="#ffffff"
     bordercolor="#666666"
     borderopacity="1.0"
     inkscape:pageshadow="2"
     inkscape:pageopacity="0.0"
     inkscape:pagecheckerboard="0"
     showgrid="false"
     inkscape:zoom="18.085106"
     inkscape:cx="36.687648"
     inkscape:cy="20.901177"
     inkscape:window-width="1920"
     inkscape:window-height="1080"
     inkscape:window-x="1920"
     inkscape:window-y="252"
     inkscape:window-maximized="1"
     inkscape:current-layer="svg16"
     width="47px" />
  <defs
     id="defs2" />
  <g
     id="g14"
     transform="translate(0.5,0.5)">
    <path
       d="M 3,13 V 8 Q 3,3 8,3 h 5"
       fill="none"
       stroke="#666666"
       stroke-width="6"
       stroke-miterlimit="10"
       pointer-events="stroke"
       id="path4" />
    <path
       d="M 43,13 V 8 Q 43,3 38,3 h -5"
       fill="none"
       stroke="#666666"
       stroke-width="6"
       stroke-miterlimit="10"
       pointer-events="stroke"
       id="path6" />
    <path
       d="M 13,43 H 8 Q 3,43 3,38 v -5"
       fill="none"
       stroke="#666666"
       stroke-width="6"
       stroke-miterlimit="10"
       pointer-events="stroke"
       id="path8" />
    <path
       d="m 33,43 h 5 q 5,0 5,-5 v -5"
       fill="none"
       stroke="#666666"
       stroke-width="6"
       stroke-miterlimit="10"
       pointer-events="stroke"
       id="path10" />
    <path
       d="M 23,23 Q 13,33 8,28 3,23 8,18 q 5,-5 15,5 10,10 15,5 5,-5 0,-10 -5,-5 -15,5"
       fill="none"
       stroke="#6c8ebf"
       stroke-width="6"
       stroke-miterlimit="10"
       pointer-events="stroke"
       id="path12" />
  </g>
</svg>
